<?xml version="1.0" standalone="no"?>
<!DOCTYPE svg PUBLIC "-//W3C//DTD SVG 20010904//EN"
 "http://www.w3.org/TR/2001/REC-SVG-20010904/DTD/svg10.dtd">
<svg version="1.0" xmlns="http://www.w3.org/2000/svg"
 width="285.000000pt" height="285.000000pt" viewBox="0 0 285.000000 285.000000"
 preserveAspectRatio="xMidYMid meet">
<metadata>
Created by potrace 1.14, written by Peter Selinger 2001-2017
</metadata>
<g transform="translate(0.000000,285.000000) scale(0.100000,-0.100000)"
fill="#000000" stroke="none">
<path d="M596 1827 c-13 -13 -38 -29 -55 -37 -40 -16 -91 -77 -91 -108 0 -24
49 -82 69 -82 6 0 9 10 7 23 -4 29 10 60 35 75 20 13 20 10 18 -293 -2 -328 0
-316 -53 -295 -24 9 -26 8 -26 -20 0 -24 6 -31 35 -41 26 -10 35 -19 35 -36 0
-27 16 -29 68 -7 20 8 55 17 77 19 68 5 124 27 170 67 87 77 95 209 16 275
-14 12 -32 22 -38 23 -23 0 -14 17 15 29 115 48 170 206 103 298 -51 70 -124
102 -245 105 -46 2 -66 6 -66 15 0 22 -49 15 -74 -10z m215 -111 c67 -33 89
-62 89 -118 0 -76 -97 -163 -204 -182 -29 -5 -28 -14 -28 169 0 47 1 100 1
119 l1 34 54 -3 c30 -2 69 -10 87 -19z m-26 -370 c45 -19 70 -59 69 -111 -2
-51 -15 -77 -57 -109 -25 -19 -113 -51 -118 -42 0 0 -3 63 -5 139 l-5 137 41
0 c22 0 56 -6 75 -14z"/>
<path d="M1763 1788 c-13 -6 -23 -16 -24 -22 -2 -23 -1 -179 1 -409 2 -225 3
-238 22 -248 14 -8 28 -7 48 1 26 11 27 14 19 48 -5 20 -9 53 -9 73 0 31 5 40
40 63 l39 26 21 -22 c11 -12 20 -31 21 -42 0 -12 2 -32 5 -46 2 -14 6 -37 8
-52 12 -83 84 -121 161 -86 l25 11 -37 21 c-46 26 -79 83 -88 151 -6 50 -16
70 -48 93 -16 12 -15 16 17 54 37 43 66 96 66 122 0 11 -9 16 -28 16 -37 0
-68 -23 -77 -57 -10 -43 -94 -143 -118 -143 -5 0 -6 48 -3 108 3 59 9 162 12
230 l5 122 -28 -1 c-15 0 -38 -5 -50 -11z"/>
<path d="M2163 1689 c-41 -15 -58 -83 -28 -113 33 -33 115 15 115 68 0 38 -45
61 -87 45z m37 -74 c-14 -17 -40 -20 -40 -6 0 6 10 17 22 26 26 17 37 3 18
-20z"/>
<path d="M1101 1489 c-126 -126 -86 -389 60 -389 50 0 91 21 122 62 30 41 34
53 42 121 9 72 -17 166 -56 207 -32 33 -40 35 -72 19 -16 -9 -22 -9 -25 0 -7
20 -40 11 -71 -20z m137 -73 c36 -72 3 -235 -50 -255 -32 -12 -43 -5 -63 39
-20 44 -17 163 5 215 l13 30 7 -30 c4 -16 8 -25 9 -19 2 17 42 55 54 51 7 -2
18 -16 25 -31z"/>
<path d="M1451 1491 c-62 -58 -95 -183 -71 -272 7 -27 27 -58 51 -82 37 -38
42 -39 90 -35 64 6 97 31 128 93 46 92 27 242 -40 303 -27 26 -52 28 -70 6
-11 -14 -13 -14 -21 0 -13 23 -32 20 -67 -13z m127 -54 c23 -28 30 -137 13
-196 -17 -57 -38 -81 -72 -81 -25 0 -32 6 -45 36 -20 49 -24 119 -9 178 14 53
36 85 27 39 l-5 -28 32 33 c34 35 43 38 59 19z"/>
<path d="M2170 1506 l-45 -11 0 -183 c-1 -205 4 -223 51 -207 27 10 28 13 30
80 2 39 5 97 9 130 15 149 16 193 9 197 -5 3 -29 0 -54 -6z"/>
</g>
</svg>
